<svg width="298" height="236" viewBox="0 0 298 236" fill="none" xmlns="http://www.w3.org/2000/svg">
<path d="M182.153 133.856C197.099 137.267 209.205 148.099 214.234 162.25C220.5 175.5 207 172 207 175.5C207 183.659 179.742 193.5 171.5 193.5L141 195.5L112 187C103.759 187 92.5002 174 82.4328 167.56C83.0002 164.5 83.5797 166.859 85.2559 162.25C90.145 148.56 101.646 137.913 115.987 134.179C119.247 133.257 123.437 132.75 127.395 132.75H172.095C175.541 132.75 178.94 133.119 182.153 133.856ZM112.495 81.125C112.495 60.7516 129.164 44.25 149.745 44.25C170.326 44.25 186.995 60.7516 186.995 81.125C186.995 101.498 170.326 118 149.745 118C129.164 118 112.495 101.498 112.495 81.125Z" fill="#3F3D56"/>
<path d="M244.647 99.12C244.647 151.111 202.589 193.24 150.73 193.24C98.8712 193.24 56.8135 151.111 56.8135 99.12C56.8135 47.1293 98.8712 5 150.73 5C202.589 5 244.647 47.1293 244.647 99.12Z" stroke="#3F3D56" stroke-width="10"/>
</svg>
